<?xml version="1.0" encoding="utf-8"?>
<!-- Generator: Adobe Illustrator 17.1.0, SVG Export Plug-In . SVG Version: 6.00 Build 0)  -->
<!DOCTYPE svg PUBLIC "-//W3C//DTD SVG 1.1//EN" "http://www.w3.org/Graphics/SVG/1.1/DTD/svg11.dtd">
<svg version="1.1" id="Layer_1" xmlns="http://www.w3.org/2000/svg" xmlns:xlink="http://www.w3.org/1999/xlink" x="0px" y="0px"
	 width="543px" height="229px" viewBox="0 0 543 229" enable-background="new 0 0 543 229" xml:space="preserve">
<g>
	<g>
		<g>
			<g>
				<path fill="#C9B485" d="M51.13,142.816c2.534-0.959,3.802-1.435,6.332-2.365c-4.428-12.148-6.659-18.214-11.092-30.361
					c-2.663,0.981-4.002,1.478-6.673,2.484c-0.662-1.781-1.004-2.68-1.686-4.462c8.024-3.033,12.047-4.483,20.139-7.247
					c13.648-4.668,20.428-0.758,22.423,5.689c1.877,6.079-0.638,13.436-13.849,17.939c-2.067,0.703-3.108,1.064-5.167,1.788
					c1.577,4.513,2.376,6.773,3.95,11.292c2.802-0.985,4.215-1.464,7.022-2.41c0.601,1.808,0.911,2.715,1.525,4.52
					c-8.533,2.881-12.793,4.396-21.237,7.592C52.143,145.488,51.807,144.598,51.13,142.816z M64.629,120.441
					c7.446-2.547,8.22-6.101,6.664-10.877c-1.396-4.292-4.441-6.705-11.811-4.172c-1.873,0.633-2.804,0.96-4.671,1.61
					c2.102,6.004,3.156,9.012,5.262,15.017C61.884,121.377,62.806,121.066,64.629,120.441z"/>
				<path fill="#C9B485" d="M98.904,126.913c2.611-0.754,3.923-1.13,6.533-1.856c-3.447-12.455-5.169-18.688-8.621-31.146
					c-2.748,0.764-4.132,1.148-6.872,1.941c-0.53-1.828-0.796-2.756-1.326-4.586c8.992-2.597,13.504-3.81,22.557-6.083
					c0.464,1.857,0.702,2.784,1.159,4.631c-2.764,0.69-4.143,1.044-6.896,1.768c3.279,12.505,4.921,18.765,8.205,31.268
					c2.621-0.689,3.933-1.022,6.565-1.687c0.461,1.854,0.695,2.781,1.157,4.626c-8.489,2.131-12.709,3.266-21.132,5.698
					C99.696,129.655,99.43,128.739,98.904,126.913z"/>
				<path fill="#C9B485" d="M137.919,88.353c-0.236,0.047-0.36,0.074-0.602,0.131c2.313,10.951,3.47,16.421,5.794,27.386
					c2.512-0.539,3.778-0.799,6.296-1.302c0.378,1.866,0.571,2.808,0.95,4.679c-6.977,1.398-10.457,2.15-17.402,3.753
					c-0.424-1.864-0.641-2.791-1.067-4.654c2.4-0.548,3.616-0.813,6.021-1.351c-2.777-12.622-4.17-18.942-6.949-31.568
					c-2.537,0.561-3.802,0.839-6.337,1.426c-0.42-1.858-0.637-2.791-1.074-4.645c6.646-1.539,9.975-2.261,16.65-3.622
					c10.788,10.055,16.002,15.207,26.07,25.679c0.237-0.041,0.351-0.068,0.588-0.105c-1.693-9.969-2.526-14.947-4.22-24.917
					c-2.667,0.458-3.993,0.697-6.655,1.176c-0.339-1.88-0.506-2.824-0.843-4.699c7.458-1.342,11.191-1.961,18.678-3.092
					c0.286,1.883,0.44,2.822,0.721,4.709c-2.563,0.39-3.835,0.593-6.399,1.005c2.418,14.97,3.613,22.476,6.026,37.441
					c-2.923,0.467-4.382,0.714-7.298,1.217C155.736,105.296,149.951,99.554,137.919,88.353z"/>
				<path fill="#C9B485" d="M198.852,106.668c2.885-0.344,4.331-0.5,7.216-0.812c-1.418-13.128-2.119-19.703-3.532-32.836
					c-0.983,0.108-1.471,0.161-2.46,0.272c-5.811,0.647-6.868,2.575-8.585,12.744c-1.636,0.203-2.454,0.304-4.088,0.527
					c-0.835-6.232-1.246-9.342-2.076-15.567c16.918-2.257,25.414-3.119,42.414-4.282c0.435,6.272,0.649,9.407,1.08,15.68
					c-1.646,0.108-2.468,0.173-4.107,0.301c-3.705-9.618-5.133-11.305-10.951-10.784c-0.981,0.086-1.475,0.136-2.467,0.226
					c1.239,13.149,1.854,19.734,3.083,32.879c2.891-0.273,4.341-0.394,7.235-0.633c0.16,1.895,0.248,2.851,0.396,4.75
					c-9.05,0.747-13.565,1.195-22.587,2.272C199.195,109.513,199.084,108.566,198.852,106.668z"/>
				<path fill="#C9B485" d="M241.671,103.048c2.661-0.133,3.993-0.189,6.659-0.293c-0.516-12.92-0.779-19.38-1.284-32.308
					c-2.802,0.116-4.203,0.185-7.001,0.321c-0.099-1.903-0.151-2.863-0.243-4.765c8.95-0.451,13.442-0.597,22.4-0.747
					c0.029,1.913,0.047,2.87,0.078,4.771c-2.542,0.045-3.831,0.072-6.385,0.139c0.131,5.269,0.207,7.9,0.354,13.164
					c7.587-0.196,11.375-0.236,18.963-0.221c0.013-5.261,0.029-7.899,0.041-13.168c-2.522-0.009-3.79-0.003-6.321,0.01
					c-0.014-1.907-0.014-2.863-0.022-4.772c8.932-0.059,13.396-0.012,22.33,0.231c-0.047,1.91-0.067,2.866-0.125,4.777
					c-2.81-0.08-4.205-0.115-7.009-0.161c-0.207,12.934-0.324,19.396-0.529,32.324c2.663,0.041,4,0.071,6.661,0.142
					c-0.052,1.902-0.082,2.859-0.129,4.766c-8.364-0.228-12.556-0.263-20.923-0.207c-0.016-1.914-0.036-2.863-0.038-4.776
					c2.404-0.015,3.608-0.024,6.004-0.009c0.028-5.879,0.04-8.819,0.051-14.697c-7.533-0.022-11.314,0.024-18.85,0.217
					c0.155,5.877,0.236,8.81,0.388,14.691c2.43-0.065,3.654-0.09,6.075-0.126c0.04,1.907,0.047,2.859,0.086,4.764
					c-8.399,0.144-12.597,0.284-20.99,0.704C241.818,105.915,241.774,104.954,241.671,103.048z"/>
				<path fill="#C9B485" d="M302.559,86.835c0.578-12.777,11.257-21.567,23.765-20.571c12.853,1.028,21.686,11.055,20.206,23.951
					c-1.457,12.774-12.023,20.749-23.703,19.82C310.823,109.074,301.969,99.805,302.559,86.835z M336.854,89.245
					c1.131-11.267-2.732-17.692-10.962-18.348c-8.244-0.657-12.942,5.15-13.62,16.388c-0.676,11.244,3.19,17.497,10.992,18.123
					C331.067,106.025,335.738,100.524,336.854,89.245z"/>
				<path fill="#C9B485" d="M362.69,99.925c1.32-9.372,2-14.064,3.326-23.435c-2.509-0.36-3.756-0.531-6.268-0.862
					c0.247-1.891,0.376-2.841,0.624-4.731c8.689,1.143,13.019,1.787,21.671,3.218c-0.316,1.887-0.474,2.831-0.783,4.711
					c-2.577-0.429-3.876-0.636-6.466-1.036c-1.351,8.65-2.022,12.98-3.363,21.636c-1.225,7.857,2.155,11.305,9.447,12.572
					c3.283,0.577,5.723-0.007,7.777-1.371c2.44-1.62,3.57-4.321,4.435-8.878c1.539-8.055,2.305-12.077,3.844-20.127
					c-2.63-0.506-3.945-0.745-6.574-1.219c0.334-1.879,0.501-2.814,0.844-4.695c7.322,1.327,10.984,2.025,18.269,3.55
					c-0.386,1.87-0.583,2.806-0.978,4.668c-2.405-0.504-3.614-0.747-6.017-1.23c-1.838,9.236-2.757,13.858-4.594,23.1
					c-1.516,7.611-8.518,13.079-19.845,11.142C366.517,114.971,361.468,108.557,362.69,99.925z"/>
				<path fill="#C9B485" d="M415.363,108.62c1.869,0.438,2.808,0.646,4.686,1.09c2.143,8.615,4.489,12.321,10.784,13.955
					c4.776,1.239,8.192-0.318,9.24-4.131c1.197-4.416-3.449-6.952-9.169-10.043c-6.443-3.483-13.49-7.445-11.49-16.128
					c1.554-6.755,9.03-10.955,17.603-8.776c4.191,1.057,8.227,3.847,9.883,7.262c1.019-1.517,1.53-2.267,2.545-3.786
					c2.02,0.554,3.037,0.837,5.055,1.407c-1.587,5.632-2.384,8.452-3.979,14.088c-1.896-0.539-2.84-0.804-4.749-1.325
					c-1.373-8.366-4.429-11.895-9.732-13.241c-4.361-1.104-7.512,0.704-8.316,4.041c-1.18,4.889,3.933,7.343,9.773,10.406
					c6.384,3.343,13.142,7.423,10.741,15.806c-2.097,7.345-9.754,11.069-18.217,8.865c-4.855-1.262-8.905-4.145-10.714-7.592
					c-1.02,1.64-1.52,2.465-2.522,4.114c-1.925-0.456-2.893-0.685-4.821-1.125C413.324,117.556,414.002,114.581,415.363,108.62z"/>
				<path fill="#C9B485" d="M457.075,129.761c2.578,0.786,3.86,1.193,6.429,2.008c3.915-12.327,5.882-18.484,9.798-30.803
					c-2.705-0.867-4.058-1.281-6.768-2.11c0.558-1.825,0.833-2.74,1.394-4.567c16.07,4.92,24.052,7.645,39.862,13.599
					c-1.991,5.309-2.995,7.971-4.997,13.285c-1.647-0.626-2.478-0.931-4.126-1.54c0.626-8.045,0.413-9.979-4.847-11.836
					c-4.772-1.696-7.177-2.521-11.975-4.119c-1.724,5.168-2.584,7.749-4.305,12.917c1.629,0.54,2.441,0.816,4.074,1.372
					c4.252,1.448,4.975,1.029,7.84-3.822c1.666,0.579,2.496,0.884,4.16,1.476c-2.27,6.325-3.408,9.49-5.678,15.814
					c-1.622-0.582-2.423-0.871-4.044-1.438c0.98-5.653,0.548-6.497-3.666-7.934c-1.621-0.547-2.439-0.824-4.056-1.361
					c-1.825,5.512-2.744,8.257-4.579,13.763c4.463,1.492,6.689,2.253,11.138,3.827c5.865,2.074,7.307,0.4,12.321-7.116
					c1.613,0.602,2.42,0.903,4.037,1.519c-2.2,5.83-3.307,8.746-5.504,14.583c-15.034-5.686-22.616-8.275-37.896-12.951
					C456.241,132.499,456.512,131.588,457.075,129.761z"/>
			</g>
		</g>
		<g>
			<path fill="#C9B485" d="M205.638,153.103h-6.699v-25.007h9.5c6.728,0,10.508,4.259,10.508,9.819c0,5.554-3.78,9.783-10.508,9.783
				h-2.802V153.103z M208.101,142.032c3.021,0,4.122-1.686,4.122-4.117c0-2.431-1.101-4.155-4.122-4.155h-2.463v8.272H208.101z"/>
			<path fill="#C9B485" d="M233.608,128.096h6.693v25.007h-6.693V128.096z"/>
			<path fill="#C9B485" d="M254.441,152.738l11.066-19.014h-9.193v-5.628h19.457c0.225,0,0.296,0.074,0.115,0.365l-11.079,19.017
				h10.158v5.626h-20.42C254.335,153.103,254.25,153.034,254.441,152.738z"/>
			<path fill="#C9B485" d="M288.397,152.738l11.078-19.014h-9.201v-5.628h19.463c0.218,0,0.294,0.074,0.109,0.365l-11.071,19.017
				h10.151v5.626h-20.414C288.285,153.103,288.223,153.034,288.397,152.738z"/>
			<path fill="#C9B485" d="M328.655,153.103h-6.542l12.169-25.45c0.105-0.258,0.329-0.258,0.441,0l12.139,25.45h-6.912l-0.959-2.133
				c0.037,0-9.421,0-9.421,0L328.655,153.103z M332.619,139.361l-2.507,5.812l6.674,0.797L332.619,139.361z"/>
		</g>
	</g>
	<g>
		<g>
			<g>
				<path fill="#FFF6DC" d="M48.33,140.013c2.533-0.959,3.794-1.436,6.339-2.363c-4.438-12.147-6.661-18.217-11.098-30.358
					c-2.667,0.982-4.002,1.48-6.675,2.485c-0.665-1.782-1.001-2.682-1.689-4.464c8.031-3.036,12.047-4.482,20.139-7.246
					c13.659-4.667,20.432-0.757,22.423,5.685c1.876,6.082-0.634,13.441-13.847,17.945c-2.062,0.703-3.104,1.06-5.164,1.786
					c1.582,4.512,2.376,6.776,3.947,11.293c2.8-0.984,4.212-1.464,7.021-2.411c0.605,1.806,0.91,2.71,1.524,4.521
					c-8.533,2.882-12.786,4.398-21.237,7.591C49.347,142.691,49.003,141.802,48.33,140.013z M61.825,117.643
					c7.449-2.547,8.232-6.104,6.666-10.88c-1.397-4.294-4.44-6.7-11.814-4.177c-1.867,0.641-2.803,0.968-4.669,1.619
					c2.101,6.003,3.155,9.009,5.256,15.013C59.089,118.581,59.999,118.266,61.825,117.643z"/>
				<path fill="#FFF6DC" d="M96.11,124.11c2.608-0.754,3.916-1.126,6.534-1.85c-3.451-12.457-5.174-18.691-8.629-31.146
					c-2.75,0.761-4.134,1.146-6.863,1.938c-0.537-1.83-0.806-2.755-1.336-4.59c8.989-2.596,13.503-3.804,22.56-6.078
					c0.468,1.855,0.704,2.775,1.157,4.628c-2.76,0.689-4.139,1.044-6.897,1.771c3.286,12.504,4.927,18.767,8.209,31.262
					c2.618-0.687,3.934-1.019,6.558-1.68c0.471,1.848,0.701,2.778,1.166,4.625c-8.489,2.131-12.714,3.263-21.138,5.694
					C96.899,126.855,96.633,125.944,96.11,124.11z"/>
				<path fill="#FFF6DC" d="M135.122,85.551c-0.237,0.051-0.366,0.081-0.61,0.131c2.323,10.953,3.476,16.426,5.796,27.386
					c2.517-0.528,3.784-0.793,6.306-1.294c0.374,1.863,0.561,2.804,0.939,4.673c-6.972,1.4-10.452,2.152-17.399,3.747
					c-0.424-1.858-0.646-2.782-1.072-4.643c2.412-0.554,3.621-0.816,6.027-1.36c-2.777-12.615-4.168-18.939-6.949-31.563
					c-2.541,0.556-3.805,0.846-6.336,1.425c-0.43-1.861-0.644-2.787-1.075-4.646c6.646-1.532,9.971-2.258,16.645-3.625
					c10.797,10.064,16.008,15.208,26.07,25.681c0.238-0.041,0.358-0.063,0.588-0.105c-1.687-9.965-2.526-14.944-4.211-24.914
					c-2.675,0.455-3.998,0.689-6.654,1.172c-0.345-1.876-0.514-2.819-0.853-4.695c7.468-1.341,11.195-1.966,18.686-3.093
					c0.283,1.882,0.428,2.82,0.715,4.71c-2.558,0.387-3.835,0.591-6.398,1.003c2.413,14.976,3.61,22.472,6.026,37.438
					c-2.923,0.472-4.377,0.718-7.296,1.221C152.937,102.494,147.15,96.753,135.122,85.551z"/>
				<path fill="#FFF6DC" d="M196.05,103.87c2.884-0.347,4.332-0.501,7.215-0.815c-1.412-13.125-2.114-19.702-3.527-32.837
					c-0.987,0.107-1.473,0.167-2.46,0.277c-5.816,0.647-6.867,2.58-8.585,12.742c-1.635,0.2-2.459,0.311-4.093,0.528
					c-0.827-6.233-1.247-9.338-2.073-15.573c16.913-2.256,25.41-3.112,42.414-4.274c0.439,6.271,0.651,9.407,1.078,15.679
					c-1.641,0.109-2.464,0.176-4.11,0.297c-3.701-9.613-5.129-11.304-10.945-10.777c-0.982,0.086-1.478,0.135-2.47,0.221
					c1.244,13.153,1.854,19.734,3.088,32.873c2.894-0.263,4.346-0.386,7.235-0.627c0.165,1.899,0.238,2.847,0.398,4.748
					c-9.056,0.747-13.563,1.196-22.59,2.271C196.398,106.71,196.282,105.769,196.05,103.87z"/>
				<path fill="#FFF6DC" d="M238.868,100.252c2.667-0.133,3.995-0.197,6.66-0.301c-0.517-12.911-0.774-19.378-1.28-32.301
					c-2.802,0.113-4.203,0.177-7.006,0.322c-0.097-1.91-0.145-2.865-0.242-4.766c8.953-0.446,13.446-0.593,22.399-0.75
					c0.029,1.91,0.049,2.869,0.085,4.773c-2.549,0.047-3.835,0.069-6.393,0.139c0.139,5.264,0.213,7.897,0.354,13.163
					c7.593-0.195,11.377-0.242,18.964-0.216c0.017-5.271,0.032-7.902,0.048-13.169c-2.528-0.008-3.795-0.003-6.321,0.011
					c-0.016-1.91-0.016-2.866-0.029-4.771c8.936-0.063,13.398-0.015,22.335,0.227c-0.046,1.909-0.072,2.864-0.125,4.774
					c-2.808-0.079-4.203-0.104-7.008-0.158c-0.213,12.929-0.324,19.399-0.529,32.322c2.664,0.041,3.994,0.07,6.655,0.142
					c-0.044,1.903-0.078,2.86-0.125,4.766c-8.364-0.228-12.555-0.263-20.927-0.204c-0.016-1.916-0.03-2.871-0.035-4.777
					c2.406-0.014,3.609-0.02,6.015-0.01c0.016-5.878,0.024-8.821,0.043-14.701c-7.537-0.025-11.314,0.021-18.848,0.217
					c0.143,5.885,0.232,8.812,0.382,14.693c2.436-0.065,3.653-0.088,6.079-0.127c0.034,1.906,0.053,2.865,0.08,4.766
					c-8.393,0.142-12.597,0.282-20.978,0.701C239.024,103.116,238.97,102.153,238.868,100.252z"/>
				<path fill="#FFF6DC" d="M299.762,84.036c0.579-12.777,11.253-21.571,23.76-20.568c12.854,1.024,21.685,11.054,20.21,23.95
					c-1.458,12.767-12.028,20.745-23.706,19.816C308.022,106.278,299.171,97.007,299.762,84.036z M334.057,86.445
					c1.119-11.267-2.736-17.69-10.972-18.347c-8.241-0.658-12.939,5.152-13.615,16.388c-0.679,11.239,3.188,17.499,10.991,18.123
					C328.267,103.232,332.934,97.725,334.057,86.445z"/>
				<path fill="#FFF6DC" d="M359.885,97.122c1.332-9.374,1.999-14.058,3.334-23.432c-2.506-0.359-3.763-0.528-6.275-0.867
					c0.245-1.889,0.378-2.836,0.628-4.726c8.684,1.145,13.014,1.79,21.67,3.219c-0.316,1.887-0.476,2.827-0.784,4.706
					c-2.588-0.423-3.876-0.63-6.459-1.034c-1.356,8.652-2.026,12.979-3.371,21.635c-1.22,7.859,2.153,11.309,9.447,12.582
					c3.286,0.571,5.722-0.011,7.78-1.381c2.438-1.615,3.57-4.315,4.434-8.877c1.538-8.052,2.306-12.074,3.839-20.127
					c-2.628-0.505-3.946-0.745-6.572-1.221c0.343-1.881,0.51-2.81,0.839-4.691c7.332,1.323,10.989,2.026,18.28,3.549
					c-0.39,1.873-0.587,2.808-0.982,4.67c-2.4-0.503-3.603-0.751-6.012-1.235c-1.839,9.242-2.758,13.863-4.602,23.101
					c-1.515,7.608-8.518,13.08-19.846,11.147C363.713,112.173,358.662,105.754,359.885,97.122z"/>
				<path fill="#FFF6DC" d="M412.563,105.821c1.87,0.434,2.805,0.646,4.688,1.089c2.134,8.612,4.485,12.321,10.779,13.955
					c4.78,1.243,8.192-0.317,9.237-4.126c1.202-4.417-3.439-6.961-9.162-10.052c-6.441-3.476-13.483-7.437-11.492-16.12
					c1.547-6.757,9.016-10.958,17.605-8.78c4.193,1.061,8.228,3.849,9.889,7.262c1.011-1.521,1.523-2.266,2.545-3.785
					c2.021,0.556,3.03,0.84,5.043,1.408c-1.581,5.631-2.379,8.453-3.975,14.083c-1.894-0.532-2.845-0.802-4.744-1.321
					c-1.382-8.361-4.431-11.892-9.739-13.237c-4.36-1.105-7.507,0.697-8.31,4.042c-1.191,4.875,3.931,7.335,9.77,10.398
					c6.382,3.348,13.139,7.424,10.739,15.809c-2.096,7.342-9.756,11.065-18.212,8.871c-4.862-1.266-8.91-4.148-10.717-7.596
					c-1.021,1.638-1.522,2.465-2.521,4.11c-1.925-0.454-2.893-0.683-4.82-1.121C410.521,114.759,411.2,111.779,412.563,105.821z"/>
				<path fill="#FFF6DC" d="M454.279,126.959c2.573,0.788,3.854,1.193,6.426,2.014c3.915-12.33,5.883-18.491,9.796-30.807
					c-2.702-0.867-4.052-1.28-6.766-2.114c0.56-1.824,0.828-2.742,1.398-4.564c16.064,4.921,24.042,7.648,39.857,13.604
					c-1.995,5.307-2.992,7.97-5,13.277c-1.64-0.621-2.47-0.928-4.116-1.536c0.62-8.046,0.406-9.979-4.85-11.84
					c-4.776-1.69-7.182-2.516-11.987-4.116c-1.714,5.167-2.57,7.748-4.291,12.921c1.63,0.539,2.431,0.814,4.064,1.368
					c4.254,1.445,4.98,1.035,7.849-3.827c1.668,0.585,2.495,0.89,4.159,1.482c-2.271,6.327-3.406,9.49-5.677,15.814
					c-1.622-0.582-2.429-0.871-4.05-1.438c0.986-5.654,0.55-6.499-3.671-7.933c-1.614-0.551-2.422-0.824-4.046-1.359
					c-1.824,5.509-2.754,8.254-4.585,13.762c4.472,1.491,6.695,2.249,11.14,3.82c5.864,2.082,7.308,0.404,12.318-7.108
					c1.62,0.599,2.43,0.902,4.043,1.52c-2.203,5.827-3.304,8.74-5.503,14.579c-15.036-5.685-22.617-8.272-37.901-12.952
					C453.438,129.696,453.713,128.786,454.279,126.959z"/>
			</g>
		</g>
		<g>
			<path fill="#FFF6DC" d="M202.835,150.306h-6.699v-25.006h9.497c6.737,0,10.517,4.261,10.517,9.817
				c0,5.552-3.779,9.777-10.517,9.777h-2.798V150.306z M205.3,139.228c3.014,0,4.119-1.681,4.119-4.111
				c0-2.431-1.104-4.16-4.119-4.16h-2.464v8.271H205.3z"/>
			<path fill="#FFF6DC" d="M230.805,125.299h6.693v25.006h-6.693V125.299z"/>
			<path fill="#FFF6DC" d="M251.631,149.937l11.074-19.021h-9.201v-5.617h19.468c0.218,0,0.295,0.072,0.106,0.362l-11.067,19.018
				h10.151v5.626h-20.417C251.525,150.306,251.448,150.233,251.631,149.937z"/>
			<path fill="#FFF6DC" d="M285.595,149.937l11.075-19.021h-9.198v-5.617h19.462c0.218,0,0.293,0.072,0.111,0.362L295.97,144.68
				h10.155v5.626h-20.414C285.489,150.306,285.41,150.233,285.595,149.937z"/>
			<path fill="#FFF6DC" d="M325.853,150.306h-6.548l12.174-25.456c0.108-0.255,0.336-0.255,0.443,0l12.14,25.456h-6.917
				l-0.963-2.134c0.037,0-9.404,0-9.404,0L325.853,150.306z M331.41,137.356l-2.507,5.811h5.075L331.41,137.356z"/>
		</g>
	</g>
	<g>
		<path fill="#C9B485" d="M129.455,146.727c0-0.931,0.663-1.634,1.616-1.634c0.969,0,1.494,0.703,1.494,1.47
			c0,0.516-0.32,1.013-0.712,1.282c0.375,0.333,0.958,0.619,2.158,0.619c1.491,0,2.318-0.926,2.318-2.419
			c0-1.558-0.643-2.527-3.293-2.527h-0.433v-1.387h0.349c2.529,0,3.107-1.038,3.107-2.527c0-1.385-0.745-2.134-2.133-2.134
			c-0.931,0-1.531,0.31-1.964,0.685c0.518,0.225,0.888,0.787,0.888,1.324c0,0.746-0.477,1.455-1.447,1.455
			c-0.917,0-1.619-0.647-1.619-1.64c0-1.741,1.805-3.149,4.516-3.149c2.998,0,4.54,1.534,4.54,3.292
			c0,1.497-1.024,2.815-3.694,3.252v0.083c2.67,0.208,3.962,1.474,3.962,3.166c0,2.135-1.846,3.848-4.99,3.848
			C131.337,149.788,129.455,148.51,129.455,146.727z"/>
		<path fill="#C9B485" d="M139.935,142.253c0-3.456,2.173-6.107,5.324-6.107c3.23,0,5.319,2.587,5.319,6.048
			c0,3.475-2.173,6.105-5.319,6.105C142.023,148.299,139.935,145.714,139.935,142.253z M147.761,142.235
			c0-3.15-0.866-4.681-2.584-4.681c-1.698,0-2.424,1.53-2.424,4.661c0,3.143,0.867,4.681,2.59,4.681
			C147.041,146.896,147.761,145.358,147.761,142.235z"/>
		<path fill="#C9B485" d="M149.339,134.799c0-1.201,0.849-2.234,2.406-2.234c1.549,0,2.4,1.012,2.4,2.234
			c0,1.204-0.871,2.24-2.4,2.24C150.172,137.039,149.339,136.002,149.339,134.799z M152.861,134.799
			c0-0.827-0.434-1.389-1.116-1.389c-0.679,0-1.121,0.562-1.121,1.389c0,0.832,0.455,1.367,1.121,1.367
			C152.447,136.165,152.861,135.631,152.861,134.799z"/>
		<path fill="#C9B485" d="M155.764,146.435h2.795v-7.202c-0.33,0.165-0.789,0.248-1.346,0.248c-0.536,0-1.162-0.083-1.556-0.226
			v-1.266c1.659,0.082,3.149-0.537,3.796-1.634h1.674v10.08h2.752v1.536h-8.115V146.435z"/>
		<path fill="#C9B485" d="M169.125,144.74c-2.488,0-4.041-1.617-4.041-3.995c0-2.364,1.701-4.599,4.888-4.599
			c3.355,0,5.034,2.731,5.034,6.273c0,4.122-2.38,7.369-6.008,7.369c-2.526,0-3.726-1.179-3.726-2.609
			c0-0.968,0.624-1.71,1.553-1.71c0.951,0,1.406,0.616,1.406,1.361c0,0.5-0.249,0.954-0.679,1.206
			c0.368,0.265,0.803,0.454,1.529,0.454c2.159,0,3.168-2.071,3.233-5.491C171.709,144.1,170.529,144.74,169.125,144.74z
			 M169.972,137.471c-1.384,0-2.217,1.121-2.217,3.024c0,1.825,0.712,2.876,2.178,2.876c1.39,0,2.281-0.933,2.281-2.896
			C172.214,138.695,171.298,137.471,169.972,137.471z"/>
		<path fill="#C9B485" d="M177.063,139.295l0.391-2.009c0.248-1.284,0.392-1.925,0.581-2.34c0.207-0.497,0.577-0.748,1.017-0.748
			c0.637,0,1.261,0.416,1.261,1.076c0,0.251-0.043,0.441-0.123,0.645c-0.232,0.514-0.501,1.032-1.161,2.068l-1.119,1.701
			L177.063,139.295z"/>
		<path fill="#C9B485" d="M181.823,142.637h-0.089v4.558h1.011v0.775h-2.822v-0.775h0.973v-5.261h-0.973v-0.778h2.537l3.189,4.889
			h0.092v-4.111h-1.018v-0.778h2.823v0.778h-0.965v6.173h-1.186L181.823,142.637z"/>
	</g>
	<g>
		<path fill="#C9B485" d="M356.136,144.731c-2.482,0-4.037-1.613-4.037-3.998c0-2.361,1.705-4.596,4.884-4.596
			c3.359,0,5.04,2.73,5.04,6.275c0,4.117-2.387,7.368-6.008,7.368c-2.525,0-3.726-1.182-3.726-2.607c0-0.973,0.619-1.72,1.553-1.72
			c0.949,0,1.407,0.623,1.407,1.37c0,0.496-0.244,0.952-0.683,1.199c0.371,0.27,0.806,0.454,1.532,0.454
			c2.153,0,3.171-2.068,3.227-5.488C358.733,144.089,357.549,144.731,356.136,144.731z M356.983,137.466
			c-1.382,0-2.211,1.11-2.211,3.02c0,1.825,0.708,2.878,2.172,2.878c1.385,0,2.278-0.933,2.278-2.9
			C359.222,138.684,358.311,137.466,356.983,137.466z"/>
		<path fill="#C9B485" d="M370.391,140.152l1.16-1.242l-0.125-0.126c-0.706,0.435-1.326,0.668-2.046,0.668
			c-1.327,0-2.08-0.79-2.862-0.79c-0.724,0-1.037,0.516-1.363,2.588h-1.455v-4.924h1.58l0.117,1.589h0.128
			c0.418-1.261,1.013-1.716,1.801-1.716c1.613,0,2.217,1.944,3.395,1.944c0.107,0,0.275-0.042,0.314-0.042
			c-0.145-0.207-0.248-0.494-0.248-0.827c0-0.662,0.471-1.221,1.25-1.221c0.843,0,1.339,0.637,1.339,1.411
			c0,0.741-0.516,1.49-1.18,2.196c-1.823,1.923-2.861,4.178-3.401,8.462c-0.118,1.059-0.512,1.678-1.443,1.678
			c-0.892,0-1.496-0.518-1.496-1.365C365.855,146.594,367.477,143.281,370.391,140.152z"/>
		<path fill="#C9B485" d="M374.332,134.789c0-1.195,0.845-2.235,2.397-2.235c1.558,0,2.396,1.017,2.396,2.235
			c0,1.203-0.862,2.238-2.396,2.238C375.158,137.026,374.332,135.991,374.332,134.789z M377.851,134.789
			c0-0.828-0.433-1.387-1.121-1.387c-0.672,0-1.122,0.559-1.122,1.387c0,0.831,0.463,1.37,1.122,1.37
			C377.431,136.159,377.851,135.62,377.851,134.789z"/>
		<path fill="#C9B485" d="M388.976,148.109v1.51h-6.11v-1.51h1.787v-2.512h-6.215v-1.531l6.199-8.146h2.528v8.104h2.682v1.573
			h-2.682v2.512H388.976z M384.688,138.264h-0.097l-4.3,5.76h4.397V138.264z"/>
		<path fill="#C9B485" d="M401.262,148.109v1.51h-6.11v-1.51h1.788v-2.512h-6.207v-1.531l6.19-8.146h2.525v8.104h2.683v1.573h-2.683
			v2.512H401.262z M396.962,138.264h-0.082l-4.298,5.76h4.38V138.264z"/>
		<path fill="#C9B485" d="M402.705,139.282l0.395-2.006c0.245-1.285,0.392-1.928,0.58-2.339c0.206-0.497,0.58-0.746,1.016-0.746
			c0.64,0,1.26,0.414,1.26,1.078c0,0.249-0.046,0.434-0.128,0.641c-0.222,0.515-0.492,1.037-1.157,2.071l-1.119,1.699
			L402.705,139.282z"/>
		<path fill="#C9B485" d="M412.76,141.914l1.26,4.658h0.09l1.376-4.658h-0.863v-0.766h2.494v0.776h-0.738l-1.975,6.08h-1.301
			l-1.173-4.132l-1.446,4.132h-1.29l-1.87-6.08h-0.915v-0.776h3.35v0.766h-0.976l1.35,4.668h0.082l1.354-3.912l-0.214-0.757h-0.871
			v-0.766h3.356v0.766H412.76z"/>
	</g>
	<g>
		<rect x="234.152" y="169.886" width="76.381" height="19.029"/>
		<path fill="#C9B485" d="M242.925,177.777c0.159-0.132,0.241-0.322,0.241-0.568v-0.077c0-0.255-0.082-0.447-0.241-0.574
			c-0.16-0.133-0.356-0.197-0.594-0.197h-0.521v1.611h0.499C242.559,177.971,242.765,177.904,242.925,177.777z"/>
		<path fill="#C9B485" d="M282.179,176.463h-0.415v3.185h0.415c0.376,0,0.667-0.134,0.879-0.403
			c0.214-0.268,0.315-0.638,0.315-1.104v-0.195c0-0.459-0.101-0.814-0.319-1.089C282.834,176.597,282.547,176.463,282.179,176.463z"
			/>
		<path fill="#C9B485" d="M242.362,179.533h-0.551v2.211h0.551c0.381,0,0.676-0.09,0.882-0.276c0.208-0.179,0.315-0.44,0.315-0.781
			v-0.103c0-0.338-0.107-0.597-0.309-0.776C243.05,179.625,242.751,179.533,242.362,179.533z"/>
		<path fill="#C9B485" d="M251.906,176.463h-0.414v3.162h0.414c0.37,0,0.667-0.134,0.876-0.394c0.213-0.258,0.319-0.625,0.319-1.091
			v-0.195c0-0.496-0.106-0.865-0.319-1.11C252.573,176.583,252.276,176.463,251.906,176.463z"/>
		<path fill="#C9B485" d="M301.808,179.533h-0.552v2.211h0.552c0.377,0,0.678-0.09,0.882-0.276c0.209-0.179,0.312-0.44,0.312-0.781
			v-0.103c0-0.338-0.103-0.597-0.298-0.776C302.49,179.625,302.194,179.533,301.808,179.533z"/>
		<path fill="#C9B485" d="M302.369,177.777c0.159-0.132,0.245-0.322,0.245-0.568v-0.077c0-0.255-0.086-0.447-0.245-0.574
			c-0.158-0.133-0.357-0.197-0.594-0.197h-0.52v1.611h0.499C302.009,177.971,302.211,177.904,302.369,177.777z"/>
		<path fill="#C9B485" d="M499.571,184.309c-6.647-6.794-15.72-10.536-25.556-10.536c-0.9,0-1.808,0.031-2.706,0.094
			c-0.851-3.559-2.776-6.939-5.713-10.048c-7.676-8.132-18.371-12.432-30.926-12.432c-0.756,0-1.515,0.02-2.284,0.052
			c-12.605,0.536-23.204,5.626-35.23,13.104c-4.732,2.944-9.334,6.087-13.771,9.132c-7.265,4.971-14.766,10.088-22.977,14.381
			c-0.084-0.129-0.175-0.259-0.263-0.379c-0.443-0.594-0.936-1.116-1.467-1.591c-3.193-2.852-7.918-3.659-13.366-2.465
			c-0.385,0.082-0.543,0.175-0.291-0.405c2.786-6.56-3.874-10.622-9.639-9.845c-2.727,0.373-9.266,2.294-12.13,3.222
			c-0.008,0.004-0.018,0.004-0.018,0.004l-1.737,0.001v-7.94c0-0.449-0.369-0.812-0.814-0.812h-0.825h-0.87h-0.86h-0.841h-2.06
			h-84.939h-4.569h-0.844h-0.854h-0.87h-0.83c-0.45,0-0.812,0.363-0.812,0.812v7.694c-3.137-0.983-8.863-2.64-11.376-2.981
			c-5.759-0.777-12.419,3.285-9.633,9.845c0.25,0.58,0.084,0.487-0.297,0.405c-5.441-1.194-10.172-0.387-13.364,2.465
			c-0.528,0.475-1.026,0.997-1.466,1.591c-0.329,0.438-0.601,0.906-0.828,1.386c-0.029-0.016-0.063-0.029-0.092-0.045
			c-8.949-4.469-17.017-9.996-24.819-15.336c-4.448-3.043-9.046-6.194-13.787-9.138c-12.025-7.478-22.619-12.568-35.232-13.104
			c-0.76-0.032-1.53-0.052-2.284-0.052c-12.56,0-23.244,4.3-30.919,12.432c-2.941,3.109-4.859,6.489-5.717,10.048
			c-0.903-0.063-1.809-0.094-2.711-0.094c-9.825,0-18.903,3.742-25.552,10.536c-7.255,7.424-9.385,16.739-5.842,25.551
			c4.482,11.132,16.852,18.627,31.518,19.101c0.557,0.02,1.111,0.029,1.665,0.029c11.526,0,21.572-3.811,28.291-10.733
			c0.537-0.575,0.454-1.037,0.361-1.264c-0.228-0.52-0.89-0.681-1.6-0.266l-0.16,0.126c-7.134,7.461-18.59,10.121-26.929,10.121
			c-0.523,0-1.036-0.011-1.541-0.029c-16.752-0.659-26.402-11.167-28.529-21.288c-2.256-10.746,3.201-20.763,14.243-26.146
			c4.685-2.279,9.399-3.442,13.998-3.442c0.793,0,1.589,0.035,2.392,0.101c-0.681,6.278,2.018,11.819,5.106,14.616
			c3.943,3.562,8.077,5.532,11.643,5.525c2.427,0,4.364-0.928,5.452-2.624c1.308-2.036,1.232-4.914-0.218-8.107
			c-2.956-6.479-11.868-10.417-19.224-11.462c2.285-9.304,11.77-16.737,24.439-19.048c10.103-1.838,21.097,0.701,33.956,7.914
			c5.752,3.23,11.378,6.702,16.804,10.058c10.866,6.717,22.095,13.621,34.58,18.67c-0.303,3.548,1.92,7.017,6.617,7.113
			c1.364,0.026,2.937-0.223,4.729-0.851c0.279-0.1,0.4,0.041,0.163,0.368c-0.61,0.814-1.079,1.711-1.417,2.647
			c-1.922,5.357,0.774,11.97,8.702,11.757c5.01-0.131,8.567-4.205,7.927-9.05c-0.213-1.57-1.22-3.085-2.657-3.928
			c-0.811-0.476-1.756-0.744-2.778-0.676c-1.026,0.064-1.936,0.499-2.643,1.15c-0.929,0.86-1.496,2.1-1.409,3.462
			c0.139,2.384,2.043,4.209,4.439,4.07c1.206-0.082,2.357-0.809,3.107-1.74c0.189-0.24,0.62-0.032,0.469,0.441
			c-0.566,1.833-1.914,3.104-4.061,3.332c-3.344,0.346-6.774-2.189-7.008-5.87c-0.086-1.269,0.083-2.375,0.455-3.346
			c0.734-1.896,2.281-3.283,4.458-4.364c0.513-0.255,1.061-0.494,1.638-0.718c0.717-0.279,1.472-0.534,2.278-0.776
			c0.043-0.008,0.096-0.027,0.145-0.041c1.372-0.402,4.424-1.253,7.702-2.436v0.69v0.85v0.778v4.603v0.948
			c0,0.447,0.364,0.812,0.813,0.812h23.399c0.102,0,0.193-0.026,0.284-0.057c0.029-0.01,0.05-0.019,0.072-0.029
			c0.017-0.014,0.047-0.017,0.066-0.032c0.053-0.031,0.102-0.071,0.142-0.11l0.018-0.015c0.062-0.067,0.111-0.144,0.155-0.224
			c0.004-0.022,0.013-0.045,0.024-0.064c0.029-0.09,0.054-0.183,0.054-0.282v-7.936h64.027v7.936c0,0.099,0.02,0.192,0.058,0.282
			c0.009,0.018,0.013,0.042,0.025,0.064c0.04,0.08,0.087,0.157,0.151,0.224c0.005,0.005,0.013,0.01,0.02,0.017
			c0.041,0.037,0.084,0.077,0.137,0.108c0.021,0.015,0.044,0.018,0.07,0.032c0.021,0.01,0.053,0.019,0.071,0.029
			c0.088,0.031,0.178,0.057,0.275,0.057h23.402c0.447,0,0.811-0.366,0.811-0.812v-1.131v-4.269v-0.771v-0.821v-0.803v-0.857
			c2.623,1.047,5.301,1.898,7.295,2.497c1.133,0.34,2.048,0.597,2.618,0.763c0.053,0.021,0.104,0.038,0.16,0.053
			c0.711,0.216,1.385,0.44,2.018,0.687c0.524,0.201,1.021,0.409,1.487,0.632c2.303,1.104,3.951,2.519,4.703,4.486
			c0.379,0.971,0.537,2.077,0.465,3.346c-0.242,3.681-3.676,6.216-7.008,5.87c-2.147-0.229-3.498-1.499-4.07-3.332
			c-0.149-0.473,0.278-0.681,0.469-0.441c0.749,0.932,1.903,1.659,3.103,1.74c2.4,0.139,4.308-1.686,4.44-4.07
			c0.094-1.362-0.475-2.602-1.406-3.462c-0.701-0.649-1.61-1.086-2.64-1.15c-1.023-0.068-1.974,0.2-2.787,0.676
			c-1.431,0.843-2.442,2.358-2.647,3.928c-0.642,4.845,2.914,8.919,7.919,9.05c7.94,0.213,10.628-6.399,8.704-11.757
			c-0.331-0.936-0.805-1.833-1.417-2.647c-0.233-0.327-0.119-0.468,0.173-0.368c1.785,0.628,3.353,0.877,4.724,0.851
			c5.127-0.102,7.304-4.222,6.47-8.078c11.561-4.952,22.047-11.423,32.232-17.711c5.426-3.357,11.038-6.826,16.788-10.052
			c12.859-7.212,23.857-9.752,33.958-7.914c12.67,2.311,22.156,9.744,24.435,19.048c-7.359,1.045-16.267,4.983-19.225,11.462
			c-1.447,3.193-1.528,6.071-0.213,8.107c1.086,1.696,3.016,2.624,5.45,2.624c3.562,0,7.704-1.962,11.635-5.525
			c3.094-2.796,5.795-8.335,5.114-14.616c0.802-0.067,1.598-0.101,2.388-0.101c4.604,0,9.312,1.163,13.996,3.442
			c11.046,5.383,16.502,15.4,14.246,26.145c-2.124,10.122-11.781,20.63-28.534,21.289c-0.506,0.018-1.013,0.029-1.537,0.029
			c-8.335,0-19.789-2.654-26.928-10.121l-0.163-0.128c-0.706-0.414-1.373-0.253-1.6,0.267c-0.093,0.227-0.178,0.689,0.369,1.274
			c6.712,6.912,16.755,10.723,28.283,10.723c0.562,0,1.108-0.009,1.666-0.029c14.664-0.474,27.035-7.969,31.513-19.101
			C508.952,201.052,506.832,191.733,499.571,184.309z M82.22,178.981l0.103,0.039c2.987,1.132,8.206,3.898,9.615,9.749
			c0.373,1.563,0.197,2.863-0.517,3.765c-0.704,0.896-1.937,1.384-3.466,1.384c-2.303,0-4.999-1.058-7.584-2.976
			c-4.883-3.618-7.308-8.861-6.73-14.477C77.094,177.035,79.915,178.109,82.22,178.981z M224.393,185.027
			c-0.199,0.14-0.404,0.271-0.61,0.397c-0.22,0.138-0.435,0.271-0.646,0.398c-0.277,0.159-0.546,0.315-0.816,0.463
			c-0.028,0.014-0.058,0.031-0.087,0.046c-0.246,0.131-0.488,0.261-0.724,0.386c-0.75,0.385-1.463,0.727-2.096,1.035
			c-0.063,0.026-0.146,0.064-0.218,0.094c-0.439,0.199-0.992,0.418-1.641,0.665c-0.378,0.136-0.794,0.282-1.237,0.436
			c-0.264,0.091-0.53,0.18-0.814,0.276c-0.268,0.087-0.531,0.174-0.813,0.262c-1.294,0.413-2.736,0.844-4.266,1.259
			c-2.043,0.55-3.824,1.089-5.421,1.639c-1.398,0.486-2.662,0.983-3.823,1.5c-0.45,0.201-0.888,0.4-1.312,0.608
			c-0.43,0.217-0.861,0.436-1.278,0.66c-0.011,0.007-0.024,0.008-0.034,0.015c-0.335,0.182-0.801,0.358-1.349,0.523
			c-2.028,0.605-5.228,0.975-7.59,0.2c-0.453-0.146-0.881-0.335-1.258-0.569c-0.391-0.242-0.443-0.627,0.515-0.453
			c0.152,0.022,0.306,0.041,0.473,0.054c1.02,0.107,2.315,0.078,3.736-0.085c0.636-0.072,1.302-0.169,1.979-0.298
			c0.678-0.128,1.377-0.286,2.076-0.468c0.542-0.145,1.083-0.309,1.623-0.488c0.598-0.192,1.183-0.41,1.759-0.65
			c1.146-0.482,0.686-1.07,0.049-0.924c-1.593,0.372-3.771,0.665-5.886,0.77c-0.929,0.049-1.843,0.061-2.686,0.026
			c-1.413-0.057-2.637-0.234-3.404-0.586c-0.013-0.004-0.013-0.004-0.018-0.01l-0.188-0.657l-0.015-0.045
			c0.13-0.021,0.296-0.024,0.501,0.001c0.55,0.079,1.223,0.12,1.978,0.143c3.925,0.103,10.156-0.533,14.259-1.898
			c0.938-0.311,1.776-0.655,2.432-1.042c0.499-0.287,0.749-0.962-0.305-0.624c-0.666,0.21-1.368,0.394-2.071,0.552
			c-5.557,1.245-12.146,0.949-14.857,0.201c-0.702-0.197-0.48-0.655,0.131-0.612c2.953,0.213,8.344,0.173,11.882-0.908
			c1.157-0.353,0.649-0.889-0.044-0.809c-2.095,0.236-7.391,0.301-8.934-0.357c-0.489-0.209-0.67-0.82,0.069-0.946
			c0.694-0.128,3.478-0.209,7.805,0.42c1.234,0.182,2.63,0.225,4.061,0.178c3.819-0.126,7.827-0.907,9.167-1.583
			c0.096-0.051,0.168-0.099,0.244-0.146c0.561-0.373,0.448-0.675,0-0.75c-0.118-0.02-0.259-0.028-0.421-0.008
			c-4.058,0.381-7.2-0.125-8.854-0.834c-0.447-0.191-0.784-0.39-1.008-0.597c-0.764-0.713-0.503-0.707,0.078-0.533
			c0.308,0.085,0.645,0.15,0.967,0.221c2.776,0.607,6.268,0.644,9.237,0.202c0.286-0.041,0.545-0.098,0.813-0.149
			c0.274-0.048,0.555-0.092,0.814-0.149c0.428-0.096,0.83-0.208,1.212-0.329c0.054-0.018,0.124-0.028,0.175-0.046
			c0.626-0.208,0.921-0.759-0.051-0.701c-0.039,0-0.08,0.003-0.116,0.005c-0.386,0.021-0.792,0.036-1.22,0.051
			c-0.264,0.005-0.535,0.012-0.814,0.012c-0.268,0-0.538,0-0.813-0.006c-3.199-0.066-6.953-0.541-8.97-1.951
			c-0.059-0.035-0.092-0.067-0.133-0.103c-0.598-0.455-0.313-0.666,0.023-0.659c0.092,0.003,0.189,0.014,0.269,0.042
			c2,0.79,5.852,1.268,8.811,0.917c0.032-0.004,0.073-0.004,0.104-0.009c0.824-0.102,0.694-0.64,0.247-0.672
			c-0.109-0.011-0.222-0.025-0.352-0.04c-1.919-0.241-5.375-1.206-6.421-1.74c-0.695-0.373-0.313-0.583,0.014-0.653
			c0.796-0.178,3.891,0.461,6.769,1.158c0.913,0.223,1.801,0.45,2.588,0.658c0.092,0.028,0.174,0.053,0.267,0.072
			c0.481,0.128,0.914,0.246,1.287,0.353c0.082,0.02,0.171,0.046,0.246,0.073c0.34,0.093,0.732,0.202,1.135,0.317
			c0.301,0.08,0.607,0.161,0.933,0.239c0.263,0.065,0.536,0.124,0.812,0.188c0.27,0.061,0.54,0.114,0.816,0.169
			c0.766,0.15,1.565,0.265,2.35,0.327c0.252,0.024,0.503,0.045,0.75,0.051c0.251,0.007,0.5-0.005,0.745-0.012
			c0.257-0.007,0.502-0.02,0.747-0.046c0.305-0.035,0.615-0.071,0.898-0.138c0.024-0.004,0.033-0.004,0.054-0.011
			c-0.085,1.27-0.833,2.562-1.908,3.789c-0.433,0.488-0.914,0.964-1.423,1.427C225.036,184.485,224.722,184.762,224.393,185.027z
			 M238.094,198.774l-5.356-2.827l-7.133-3.759h6.802h5.688V198.774z M245.625,180.849c0,0.865-0.28,1.52-0.846,1.96
			c-0.565,0.443-1.359,0.665-2.401,0.665h-2.545v-8.845h2.695c0.355,0,0.696,0.054,1.018,0.157c0.319,0.105,0.606,0.253,0.836,0.449
			c0.243,0.196,0.431,0.436,0.572,0.713c0.14,0.283,0.206,0.592,0.206,0.942v0.103c0,0.419-0.114,0.758-0.336,1.021
			c-0.23,0.258-0.499,0.451-0.799,0.57c0.208,0.068,0.412,0.16,0.607,0.275c0.191,0.11,0.366,0.256,0.512,0.42
			c0.145,0.169,0.267,0.37,0.35,0.61c0.09,0.238,0.133,0.514,0.133,0.829V180.849z M253.092,183.474l-0.962-2.107h-0.263h-0.375
			v2.107h-2.11v-8.845h2.617c0.49,0,0.926,0.071,1.317,0.213c0.395,0.145,0.731,0.363,1.006,0.634
			c0.279,0.275,0.495,0.62,0.645,1.028c0.154,0.405,0.231,0.876,0.231,1.417v0.234c0,0.596-0.109,1.11-0.324,1.534
			c-0.206,0.438-0.494,0.784-0.858,1.047l1.251,2.737H253.092z M263.774,183.474h-4.793v-8.845h4.706v1.769h-2.632v2.443h2.111
			v1.706h-2.111v1.153h2.719V183.474z M273.531,183.579h-0.284l-1.143-3.105c-0.063-0.17-0.125-0.338-0.179-0.511
			c-0.066-0.177-0.121-0.337-0.163-0.481c-0.045-0.146-0.078-0.271-0.108-0.366c-0.034-0.108-0.051-0.165-0.064-0.185
			c0,0.009-0.009,0.066-0.047,0.168c-0.025,0.099-0.058,0.224-0.103,0.37c-0.049,0.146-0.094,0.307-0.164,0.481
			c-0.057,0.178-0.116,0.35-0.174,0.525l-1.147,3.105h-0.286l-2.601-8.95h2.108l0.779,2.877c0.043,0.127,0.082,0.271,0.111,0.415
			c0.029,0.144,0.058,0.283,0.087,0.402c0.034,0.146,0.058,0.284,0.083,0.419c0.033-0.142,0.072-0.288,0.109-0.431
			c0.036-0.12,0.077-0.256,0.108-0.408c0.035-0.148,0.076-0.282,0.106-0.415l0.934-2.953h0.284l0.959,2.953
			c0.047,0.123,0.091,0.258,0.128,0.411c0.039,0.156,0.072,0.292,0.108,0.412c0.039,0.143,0.081,0.289,0.115,0.431
			c0.022-0.142,0.039-0.288,0.067-0.431c0.02-0.12,0.036-0.256,0.071-0.396c0.042-0.146,0.06-0.282,0.1-0.41l0.752-2.877h1.992
			L273.531,183.579z M285.473,178.155c0,0.546-0.077,1.022-0.237,1.436c-0.156,0.41-0.373,0.753-0.646,1.035
			c-0.281,0.275-0.617,0.485-1.015,0.626c-0.395,0.135-0.832,0.207-1.301,0.207h-0.511v2.015h-2.105v-8.845h2.615
			c0.469,0,0.906,0.071,1.295,0.208c0.395,0.138,0.728,0.353,1.007,0.624c0.286,0.276,0.503,0.622,0.659,1.027
			c0.16,0.409,0.237,0.883,0.237,1.434V178.155z M295.239,180.584c0,0.505-0.078,0.944-0.227,1.318
			c-0.139,0.382-0.353,0.696-0.611,0.945c-0.263,0.253-0.58,0.442-0.95,0.565c-0.365,0.126-0.774,0.195-1.224,0.195
			c-0.454,0-0.867-0.069-1.238-0.195c-0.372-0.123-0.695-0.312-0.958-0.565c-0.261-0.249-0.468-0.563-0.611-0.945
			c-0.141-0.374-0.219-0.813-0.219-1.318v-5.955h2.108v5.955c0,0.368,0.081,0.648,0.206,0.842c0.139,0.205,0.374,0.305,0.713,0.305
			c0.333,0,0.572-0.1,0.707-0.305c0.135-0.194,0.201-0.475,0.201-0.842v-5.955h2.104V180.584z M305.071,180.849
			c0,0.865-0.282,1.52-0.853,1.96c-0.558,0.443-1.353,0.665-2.398,0.665h-2.551v-8.845h2.704c0.357,0,0.69,0.054,1.017,0.157
			c0.317,0.105,0.597,0.253,0.837,0.449c0.242,0.196,0.432,0.436,0.569,0.713c0.138,0.283,0.206,0.592,0.206,0.942v0.103
			c0,0.419-0.11,0.758-0.335,1.021c-0.224,0.258-0.495,0.451-0.798,0.57c0.212,0.068,0.414,0.16,0.605,0.275
			c0.194,0.11,0.363,0.256,0.515,0.42c0.148,0.169,0.261,0.37,0.353,0.61c0.087,0.238,0.13,0.514,0.13,0.829V180.849z
			 M312.881,194.81l-7.513,3.964v-6.586h7.737h4.743L312.881,194.81z M357.155,195.323c-0.374,0.24-0.804,0.423-1.26,0.575
			c-2.729,0.885-6.577,0.254-8.452-0.505c-0.178-0.075-0.342-0.149-0.482-0.224c-0.197-0.108-0.405-0.208-0.61-0.313
			c-0.422-0.219-0.852-0.431-1.29-0.639c-0.409-0.188-0.822-0.374-1.252-0.558c-2.375-1.02-5.142-1.951-8.719-2.912
			c-2.377-0.645-4.539-1.321-6.245-1.922c-0.025-0.005-0.054-0.015-0.078-0.029c-0.288-0.097-0.553-0.194-0.811-0.291
			c-0.297-0.111-0.561-0.213-0.816-0.311c-0.395-0.162-0.747-0.308-1.03-0.439c-0.184-0.091-0.375-0.179-0.563-0.275
			c-0.713-0.341-1.492-0.729-2.307-1.17c-0.571-0.312-1.158-0.655-1.74-1.033c-0.275-0.175-0.545-0.358-0.814-0.552
			c-0.277-0.198-0.545-0.4-0.817-0.615c-0.353-0.284-0.713-0.584-1.052-0.9c-0.525-0.494-1.01-1.04-1.461-1.624
			c-0.454-0.59-0.866-1.225-1.207-1.919c-0.021-0.04-0.043-0.083-0.061-0.127c-0.072-0.163-0.124-0.329-0.076-0.449
			c0.052-0.139,0.261-0.204,0.726-0.111c0.053,0.007,0.092,0.015,0.148,0.029c0.204,0.046,0.421,0.067,0.627,0.094
			c0.739,0.109,1.532,0.121,2.356,0.064c0.274-0.02,0.54-0.04,0.817-0.071c0.269-0.032,0.538-0.067,0.814-0.112
			c0.438-0.067,0.874-0.147,1.298-0.237c0.763-0.161,1.493-0.341,2.147-0.517c0.405-0.115,0.79-0.218,1.122-0.316l0.015-0.001
			c0.479-0.144,1.097-0.312,1.796-0.499c0.27-0.072,0.555-0.145,0.849-0.221c0.248-0.06,0.503-0.126,0.761-0.198
			c3.114-0.779,6.861-1.596,7.751-1.397c0.322,0.07,0.707,0.28,0.015,0.653c-1.117,0.568-4.965,1.621-6.772,1.78
			c-0.458,0.032-0.58,0.57,0.242,0.672c2.977,0.373,6.892-0.11,8.91-0.908c0.409-0.152,1.155,0.055,0.169,0.72
			c-2.354,1.643-7.047,2.021-10.505,1.951c-0.18-0.005-0.354-0.015-0.529-0.02c-0.28-0.008-0.553-0.021-0.811-0.039
			c-0.032-0.003-0.062-0.003-0.092-0.003c-0.968-0.059-0.673,0.493-0.048,0.701c0.04,0.016,0.092,0.023,0.14,0.04
			c0.254,0.076,0.538,0.145,0.811,0.217c0.165,0.043,0.305,0.09,0.475,0.125c3.552,0.792,8.422,0.83,11.785-0.131
			c0.587-0.174,0.848-0.18,0.075,0.533c-1.027,0.968-4.703,1.911-9.861,1.432c-0.833-0.09-1.209,0.365-0.163,0.904
			c1.829,0.927,8.711,2.071,13.221,1.405c4.328-0.629,7.106-0.548,7.803-0.42c0.74,0.127,0.567,0.737,0.079,0.946
			c-1.558,0.658-6.844,0.594-8.937,0.357c-0.696-0.08-1.203,0.456-0.049,0.809c3.549,1.082,8.935,1.122,11.874,0.908
			c0.63-0.042,0.839,0.416,0.147,0.612c-3.065,0.841-11.062,1.12-16.933-0.753c-1.059-0.338-0.8,0.337-0.306,0.624
			c3.01,1.765,9.414,2.739,14.237,2.92c0.76,0.026,1.478,0.033,2.137,0.023c0.881-0.015,1.665-0.06,2.289-0.147
			c0.211-0.025,0.37-0.022,0.503-0.001l-0.079,0.277l-0.119,0.425c-0.008,0.006-0.016,0.006-0.018,0.01
			c-0.61,0.281-1.507,0.451-2.562,0.537c-0.995,0.084-2.138,0.087-3.305,0.036c-0.725-0.032-1.461-0.085-2.177-0.159
			c-1.445-0.147-2.837-0.366-3.938-0.622c-0.631-0.146-1.097,0.443,0.049,0.924c0.317,0.13,0.638,0.252,0.96,0.374
			c0.449,0.162,0.909,0.321,1.374,0.466c0.607,0.183,1.223,0.349,1.833,0.489c0.549,0.132,1.101,0.241,1.637,0.339
			c2.057,0.362,3.97,0.467,5.374,0.322c0.163-0.013,0.322-0.032,0.469-0.054C357.599,194.696,357.54,195.081,357.155,195.323z
			 M462.634,190.942c-2.583,1.918-5.278,2.976-7.577,2.976c-1.538,0-2.764-0.488-3.473-1.381c-0.71-0.905-0.889-2.205-0.518-3.768
			c1.415-5.85,6.628-8.616,9.611-9.749l0.108-0.039c2.304-0.873,5.119-1.946,8.582-2.516
			C469.942,182.081,467.513,187.324,462.634,190.942z"/>
	</g>
	<g>
		<rect x="247.103" y="2.043" width="49.215" height="28.788"/>
		<path fill="#C9B485" d="M272.186,17.222l-0.401,1.232h1.256l-0.39-1.232c-0.067-0.193-0.121-0.375-0.164-0.553
			c-0.045-0.175-0.062-0.274-0.073-0.289c-0.008,0.015-0.035,0.113-0.076,0.289C272.296,16.847,272.244,17.029,272.186,17.222z"/>
		<path fill="#C9B485" d="M263.307,13.901h-0.403v3.058h0.403c0.361,0,0.643-0.125,0.85-0.379c0.203-0.249,0.304-0.602,0.304-1.054
			v-0.19c0-0.478-0.102-0.835-0.304-1.075C263.95,14.022,263.668,13.901,263.307,13.901z"/>
		<path fill="#C9B485" d="M540.282,57.317c-3.329-5.757-9.451-8.927-17.225-8.927c-9.374,0-18.694,4.645-22.663,11.295
			c-0.264,0.449-0.304,0.918-0.09,1.293c0.172,0.308,0.506,0.503,0.863,0.503c0.453,0,0.86-0.292,1.11-0.793
			c0.107-0.212,0.193-0.393,0.275-0.561c0.4-0.821,0.564-1.158,1.479-2.087c5.217-5.367,11.846-8.322,18.672-8.322h0.207
			c7.534,0.063,13.789,3.403,16.732,8.94c2.666,5.017,2.127,11.025-1.496,16.484c-5.242,7.907-13.263,11.918-23.827,11.918
			c-11.24,0-22.395-4.511-28.042-7.202c-9.864-4.693-22.876-13.935-36.661-23.72c-21.69-15.401-44.119-31.328-59.576-33.771
			c-2.832-0.444-5.596-0.675-8.224-0.675c-12.198,0-19.884,4.856-24.262,9.086c-2.227-5.114-5.547-9.859-9.621-13.755
			c-6.756-6.46-14.862-9.873-23.426-9.873c-5.373,0-10.79,1.371-15.862,3.771c-0.75-2.409-1.954-4.613-3.536-6.505
			c-0.588,0.254-1.227,0.4-1.91,0.4c-2.654,0-4.803-2.157-4.803-4.807h-53.792c0,2.649-2.151,4.807-4.802,4.807
			c-0.68,0-1.325-0.146-1.915-0.4c-1.583,1.893-2.789,4.097-3.535,6.505c-5.073-2.402-10.488-3.771-15.856-3.771
			c-8.566,0-16.666,3.413-23.429,9.873c-4.075,3.895-7.391,8.641-9.623,13.755c-4.376-4.229-12.056-9.086-24.263-9.086
			c-2.625,0-5.392,0.231-8.22,0.675c-15.462,2.443-37.885,18.37-59.576,33.771c-13.781,9.785-26.797,19.026-36.661,23.72
			c-5.647,2.69-16.798,7.202-28.044,7.202c-10.567,0-18.584-4.011-23.825-11.918c-3.619-5.459-4.165-11.467-1.495-16.484
			c2.938-5.537,9.196-8.877,16.729-8.94h0.211c6.823,0,13.455,2.955,18.677,8.322c0.908,0.929,1.075,1.266,1.466,2.087
			c0.087,0.168,0.17,0.349,0.283,0.561c0.25,0.501,0.654,0.793,1.111,0.793c0.354,0,0.688-0.195,0.862-0.503
			c0.212-0.375,0.18-0.845-0.092-1.293c-3.968-6.65-13.287-11.295-22.657-11.295c-7.777,0-13.895,3.169-17.234,8.927
			C-0.636,63.12-0.259,69.185,3.88,75.854C9.044,84.206,17.647,88.44,29.458,88.44c8.136,0,17.795-2.1,27.918-6.066
			c6.19-2.428,12.473-5.522,17.709-8.711c8.954-5.464,17.646-11.176,26.049-16.697c12.312-8.091,25.039-16.452,38.552-23.98
			c8.872-4.929,15.731-7.282,22.929-7.873c8.442-0.686,16.422,1.93,22.182,7.247c-2.986,7.728-3.059,15.268-0.197,20.716
			c1.02,1.928,2.708,3.074,4.533,3.074c0.999,0,1.936-0.354,2.71-1.038c2.745-2.411,2.422-6.898,1.989-9.355
			c-0.808-4.603-3.466-9.703-7.136-13.694c2.188-4.416,5.64-8.601,10.264-12.431c6.673-5.528,14.592-8.453,22.897-8.453
			c4.787,0,9.457,0.952,13.832,2.716c-0.126,0.866-0.203,1.741-0.203,2.643c0,3.677,1.065,7.106,2.885,10.006
			c-5.363,0.816-11.901,3.428-13.912,4.172c-5.371,1.978-9.489,2.089-12.17-2.006c-1.946-2.975-0.771-6.933,2.023-8.6
			c1.791-1.069,3.565-0.872,5.077,0.225c0.389,0.282,0.178,0.69-0.104,0.614c-1.125-0.284-2.442-0.181-3.413,0.449
			c-1.942,1.284-2.354,3.795-1.081,5.733c1.266,1.937,3.867,2.483,5.812,1.217c2.29-1.501,2.71-4.618,1.529-6.709
			c-2.308-4.126-7.43-5.209-11.374-2.411c-7.347,5.206-3.661,13.501,2.715,15.358c0.368,0.118,0.363,0.292,0.078,0.394
			c-10.109,3.18-7.632,11.853-1.607,13.64c4.792,1.4,9.712-0.701,13.818-5.457c0.252-0.282,0.317-0.451,0.465,0.141
			c1.643,6.691,9.148,5.967,13.155,2.023c1.9-1.857,5.841-7.134,7.523-9.522c0.802-1.146,1.592-2.071,2.399-2.738h1.838h5.823h0.396
			h0.398h0.029h0.367h0.403h29.888h0.397h0.372h0.03h0.396h0.395h5.519h2.142c0.807,0.667,1.6,1.592,2.397,2.738
			c1.683,2.388,5.626,7.664,7.525,9.522c4.005,3.943,11.511,4.668,13.162-2.023c0.143-0.592,0.202-0.423,0.453-0.141
			c4.103,4.756,9.032,6.856,13.821,5.457c6.031-1.787,8.493-10.46-1.604-13.64c-0.286-0.102-0.296-0.276,0.073-0.394
			c6.376-1.857,10.068-10.152,2.717-15.358c-3.947-2.798-9.068-1.715-11.375,2.411c-1.17,2.092-0.756,5.208,1.535,6.709
			c1.937,1.266,4.538,0.719,5.812-1.217c1.267-1.938,0.863-4.449-1.089-5.733c-0.972-0.63-2.279-0.733-3.405-0.449
			c-0.286,0.076-0.494-0.332-0.11-0.614c1.512-1.097,3.287-1.294,5.087-0.225c2.783,1.667,3.962,5.625,2.009,8.6
			c-2.677,4.095-6.8,3.983-12.163,2.006c-2.014-0.744-8.559-3.356-13.916-4.172c1.817-2.9,2.891-6.329,2.891-10.006
			c0-0.902-0.082-1.777-0.208-2.643c4.38-1.765,9.051-2.716,13.842-2.716c8.301,0,16.216,2.924,22.893,8.453
			c4.619,3.829,8.077,8.014,10.263,12.431c-3.669,3.991-6.327,9.091-7.136,13.694c-0.439,2.457-0.754,6.944,1.985,9.355
			c0.775,0.684,1.713,1.038,2.718,1.038c1.815,0,3.506-1.146,4.522-3.074c2.864-5.448,2.792-12.988-0.189-20.716
			c5.753-5.317,13.738-7.933,22.175-7.247c7.198,0.591,14.064,2.944,22.932,7.873c13.52,7.529,26.242,15.89,38.551,23.98
			c8.408,5.521,17.097,11.232,26.053,16.697c5.238,3.189,11.524,6.283,17.709,8.711c10.127,3.966,19.776,6.066,27.918,6.066
			c11.811,0,20.419-4.234,25.576-12.586C543.258,69.185,543.636,63.12,540.282,57.317z M192.492,46.843
			c0.397,3.277-0.472,6.949-2.909,7.618c-2.445,0.668-4.57-2.926-5.213-6.331c-0.941-4.925-0.385-9.827,1.636-14.575
			C189.617,37.355,191.926,42.052,192.492,46.843z M241.947,36.431c-1.66,2.206-6.13,7.741-7.29,8.254
			c-0.288,0.131-0.711,0.192-0.384-0.494c0.538-1.086,2.901-4.139,4.211-5.315c0.327-0.275,0.119-0.759-0.583-0.365
			c-2.51,1.435-5.266,4.08-6.374,5.858c-0.22,0.361-0.915,0.64-0.545-0.455c1.005-3.024,5.356-6.544,8.141-8.383
			c0.786-0.518,0.238-0.771-0.366-0.563c-3.404,1.178-8.029,4.384-10.364,7.467c-0.352,0.469-0.55,0.623-0.37-0.376
			c0.239-1.341,2.535-4.213,6.801-6.817c0.701-0.424,0.725-0.999-0.397-0.803c-1.957,0.345-7.928,3.451-11.042,6.572
			c-2.991,3.006-5.185,4.552-5.787,4.861c-0.654,0.322-0.872-0.253-0.607-0.692c0.819-1.41,4.944-4.429,6.7-5.456
			c0.592-0.333,0.671-1.045-0.425-0.647c-3.379,1.215-7.569,4.303-9.714,6.178c-0.462,0.4-0.888,0.16-0.462-0.384
			c1.876-2.445,7.907-7.279,13.528-9.235c1.018-0.35,0.428-0.73-0.129-0.667c-4.579,0.514-13.218,5.86-16.063,8.648
			c-0.659,0.659-1.055,0.387-0.628-0.391c1.151-2.107,6.252-5.395,9.385-6.775c0.579-0.252,0.593-0.972-0.574-0.678
			c-4.162,1.048-8.349,3.413-10.119,5.257c-0.654,0.683-0.824,0.356-0.671-0.056c1.168-3.067,5.987-5.487,7.98-5.789
			c3.345-0.504,6.862-1.507,11.747-3.455c3.693-1.482,7.035-2.553,8.683-2.897c0.481-0.092,1.009-0.195,1.563-0.303
			c0.032,0.041,0.061,0.087,0.097,0.131c0.589-0.253,1.235-0.395,1.915-0.395c2.651,0,4.802,2.146,4.802,4.802h0.145
			C243.622,34.238,242.644,35.503,241.947,36.431z M253.074,5.183h37.529v1.577h-37.529V5.183z M282.816,16.205v1.686h-2.024v2.79
			h-2.036v-8.552h4.402v1.711h-2.366v2.366H282.816z M275.783,20.68h-2.023l-0.23-0.714h-2.225l-0.228,0.714h-1.912l3.185-8.652
			h0.276L275.783,20.68z M266.563,20.68h-2.112l-0.929-2.035h-0.251h-0.367v2.035h-2.038v-8.552h2.527
			c0.472,0,0.897,0.069,1.279,0.207c0.381,0.14,0.708,0.342,0.975,0.611c0.269,0.268,0.48,0.599,0.625,0.994
			c0.145,0.395,0.221,0.849,0.221,1.37v0.227c0,0.579-0.105,1.075-0.311,1.489c-0.203,0.417-0.484,0.753-0.837,1.014L266.563,20.68z
			 M252.239,16.531v-0.252c0-0.679,0.09-1.282,0.258-1.811c0.17-0.528,0.415-0.971,0.731-1.333c0.312-0.36,0.694-0.635,1.142-0.823
			c0.451-0.189,0.946-0.285,1.494-0.285c0.426,0,0.801,0.057,1.126,0.17c0.319,0.115,0.58,0.242,0.768,0.383l-0.866,1.598
			c-0.107-0.076-0.242-0.15-0.395-0.226c-0.156-0.075-0.356-0.114-0.598-0.114c-0.217,0-0.423,0.049-0.61,0.146
			c-0.188,0.095-0.357,0.244-0.498,0.445c-0.14,0.201-0.255,0.46-0.341,0.774c-0.08,0.313-0.123,0.689-0.123,1.126v0.138
			c0,0.444,0.039,0.824,0.121,1.145c0.077,0.319,0.183,0.581,0.325,0.788c0.135,0.203,0.305,0.355,0.491,0.452
			c0.186,0.095,0.39,0.146,0.61,0.146c0.251,0,0.464-0.041,0.641-0.121c0.179-0.079,0.329-0.161,0.455-0.246l0.892,1.536
			c-0.219,0.159-0.499,0.304-0.849,0.433c-0.348,0.128-0.754,0.193-1.229,0.193c-0.502,0-0.968-0.082-1.398-0.25
			c-0.435-0.169-0.809-0.429-1.127-0.779c-0.317-0.351-0.569-0.797-0.746-1.335C252.33,17.894,252.239,17.261,252.239,16.531z
			 M290.603,27.986h-37.529v-1.577h37.529V27.986z M291.454,13.914h-1.621v6.766h-2.036v-6.766h-1.623v-1.786h5.28V13.914z
			 M306.774,28.832c1.649,0.344,4.989,1.415,8.693,2.897c4.878,1.947,8.395,2.95,11.733,3.455c1.992,0.301,6.812,2.722,7.98,5.789
			c0.159,0.412-0.014,0.739-0.663,0.056c-1.777-1.843-5.959-4.208-10.124-5.257c-1.168-0.294-1.155,0.426-0.576,0.678
			c3.141,1.381,8.24,4.668,9.398,6.775c0.42,0.777,0.023,1.05-0.645,0.391c-2.841-2.788-11.474-8.134-16.053-8.648
			c-0.56-0.063-1.141,0.316-0.131,0.667c5.623,1.957,11.653,6.79,13.527,9.235c0.426,0.544-0.004,0.784-0.455,0.384
			c-2.154-1.874-6.348-4.962-9.721-6.178c-1.094-0.398-1.018,0.314-0.43,0.647c1.758,1.026,5.889,4.046,6.709,5.456
			c0.258,0.439,0.043,1.014-0.611,0.692c-0.607-0.309-2.8-1.855-5.787-4.861c-3.114-3.121-9.09-6.227-11.042-6.572
			c-1.124-0.196-1.098,0.379-0.398,0.803c4.269,2.604,6.561,5.477,6.803,6.817c0.179,0.999-0.021,0.845-0.372,0.376
			c-2.331-3.083-6.962-6.289-10.361-7.467c-0.605-0.208-1.158,0.045-0.365,0.563c2.788,1.839,7.135,5.359,8.138,8.383
			c0.367,1.094-0.322,0.816-0.541,0.455c-1.108-1.779-3.868-4.423-6.378-5.858c-0.701-0.393-0.903,0.09-0.58,0.365
			c1.307,1.176,3.675,4.228,4.213,5.315c0.321,0.687-0.103,0.626-0.394,0.494c-1.153-0.513-5.618-6.048-7.287-8.254
			c-0.697-0.928-1.675-2.193-2.797-3.364h0.14c0-2.656,2.148-4.802,4.803-4.802c0.684,0,1.322,0.143,1.91,0.395
			c0.03-0.044,0.064-0.09,0.094-0.131C305.765,28.631,306.295,28.74,306.774,28.832z M358.629,48.13
			c-0.643,3.404-2.77,6.999-5.209,6.331c-2.439-0.669-3.314-4.341-2.911-7.618c0.575-4.791,2.874-9.487,6.488-13.288
			C359.021,38.304,359.573,43.206,358.629,48.13z"/>
	</g>
</g>
<rect fill="none" width="543" height="229"/>
<g>
</g>
<g>
</g>
<g>
</g>
<g>
</g>
<g>
</g>
<g>
</g>
</svg>
